<?xml version="1.0" encoding="UTF-8" standalone="no"?>
<svg
   id="svg4542"
   viewBox="0 0 350.2303 108.91994"
   version="1.1"
   sodipodi:docname="pygeoogc_logo.svg"
   width="350.23029"
   height="108.91994"
   inkscape:version="1.2.1 (9c6d41e4, 2022-07-14)"
   inkscape:export-filename="../../../../../../Users/tchegini/repos/stack/HyRiver-examples/notebooks/_static/pynhd_logo.png"
   inkscape:export-xdpi="128.16"
   inkscape:export-ydpi="128.16"
   xmlns:inkscape="http://www.inkscape.org/namespaces/inkscape"
   xmlns:sodipodi="http://sodipodi.sourceforge.net/DTD/sodipodi-0.dtd"
   xmlns="http://www.w3.org/2000/svg"
   xmlns:svg="http://www.w3.org/2000/svg"
   xmlns:rdf="http://www.w3.org/1999/02/22-rdf-syntax-ns#"
   xmlns:cc="http://creativecommons.org/ns#"
   xmlns:dc="http://purl.org/dc/elements/1.1/">
  <defs
     id="defs3773">
    <clipPath
       clipPathUnits="userSpaceOnUse"
       id="clipPath5591">
      <rect
         style="opacity:0.412;fill:#e2ddfb;fill-opacity:1;stroke-width:0.228837"
         id="rect5593"
         width="25.730032"
         height="60.141014"
         x="-588.9776"
         y="-44.976849" />
    </clipPath>
    <filter
       inkscape:collect="always"
       style="color-interpolation-filters:sRGB"
       id="filter6688"
       x="-0.102"
       width="1.204"
       y="-0.102"
       height="1.204">
      <feGaussianBlur
         inkscape:collect="always"
         stdDeviation="1.9676752"
         id="feGaussianBlur6690" />
    </filter>
    <filter
       inkscape:collect="always"
       style="color-interpolation-filters:sRGB"
       id="filter1226"
       x="-0.058764231"
       width="1.1175285"
       y="-0.043888148"
       height="1.087419">
      <feGaussianBlur
         inkscape:collect="always"
         stdDeviation="0.1815565"
         id="feGaussianBlur1228" />
    </filter>
    <filter
       inkscape:collect="always"
       style="color-interpolation-filters:sRGB"
       id="filter2032"
       x="-0.057469083"
       y="-0.19397878"
       width="1.1149382"
       height="1.3879576">
      <feGaussianBlur
         inkscape:collect="always"
         stdDeviation="1.0312686"
         id="feGaussianBlur2034" />
    </filter>
  </defs>
  <sodipodi:namedview
     pagecolor="#ffffff"
     bordercolor="#666666"
     borderopacity="1"
     objecttolerance="10"
     gridtolerance="10"
     guidetolerance="10"
     inkscape:pageopacity="0"
     inkscape:pageshadow="2"
     inkscape:window-width="1920"
     inkscape:window-height="1056"
     id="namedview3771"
     showgrid="false"
     inkscape:zoom="2.6888995"
     inkscape:cx="164.93737"
     inkscape:cy="27.892452"
     inkscape:window-x="69"
     inkscape:window-y="25"
     inkscape:window-maximized="0"
     inkscape:current-layer="svg4542"
     showguides="true"
     inkscape:guide-bbox="true"
     inkscape:document-rotation="0"
     inkscape:snap-object-midpoints="true"
     inkscape:snap-center="true"
     inkscape:showpageshadow="2"
     inkscape:pagecheckerboard="0"
     inkscape:deskcolor="#d1d1d1" />
  <text
     xml:space="preserve"
     style="font-size:53.3333px;line-height:1.25;font-family:'EB Garamond';-inkscape-font-specification:'EB Garamond, Normal';fill:none;fill-opacity:1;stroke:#b8e092;stroke-width:1.4;stroke-miterlimit:4;stroke-dasharray:none;stroke-opacity:1;filter:url(#filter2032)"
     x="17.470291"
     y="102.2249"
     id="text1478"><tspan
       sodipodi:role="line"
       id="tspan1476"
       x="17.470291"
       y="102.2249"
       style="font-style:normal;font-variant:normal;font-weight:600;font-stretch:normal;font-size:16px;font-family:'Fira Sans';-inkscape-font-specification:'Fira Sans, Semi-Bold';font-variant-ligatures:normal;font-variant-caps:normal;font-variant-numeric:normal;font-variant-east-asian:normal;fill:none;fill-opacity:1;stroke:#b8e092;stroke-width:1.4;stroke-miterlimit:4;stroke-dasharray:none;stroke-opacity:1">HyRiver</tspan></text>
  <text
     xml:space="preserve"
     style="font-size:53.3333px;line-height:1.25;font-family:'EB Garamond';-inkscape-font-specification:'EB Garamond, Normal';fill:#4747a0;fill-opacity:1;stroke:none;stroke-width:1;stroke-miterlimit:4;stroke-dasharray:none;stroke-opacity:1"
     x="17.470291"
     y="102.2249"
     id="text2232"><tspan
       sodipodi:role="line"
       id="tspan2230"
       x="17.470291"
       y="102.2249"
       style="font-style:normal;font-variant:normal;font-weight:600;font-stretch:normal;font-size:16px;font-family:'Fira Sans';-inkscape-font-specification:'Fira Sans, Semi-Bold';font-variant-ligatures:normal;font-variant-caps:normal;font-variant-numeric:normal;font-variant-east-asian:normal;fill:#4747a0;fill-opacity:1;stroke:none;stroke-width:1;stroke-miterlimit:4;stroke-dasharray:none;stroke-opacity:1">HyRiver</tspan></text>
  <circle
     style="fill:#62a2fb;fill-opacity:1;stroke-width:0.414608"
     id="circle5788"
     cx="46.262226"
     cy="46.262226"
     r="42.188431" />
  <circle
     style="fill:#b7e092;fill-opacity:1;stroke-width:0.155863"
     id="circle1230"
     cx="46.262226"
     cy="46.262226"
     r="15.859818" />
  <path
     inkscape:connector-curvature="0"
     id="path4588"
     d="m -588.6646,-35.435617 a 23.149198,23.149198 0 0 0 -23.14934,23.149341 23.149198,23.149198 0 0 0 23.14934,23.148899 23.149198,23.149198 0 0 0 23.1489,-23.148899 23.149198,23.149198 0 0 0 -23.1489,-23.149341 z m 0,2.849068 a 20.300067,20.300067 0 0 1 20.29983,20.300273 20.300067,20.300067 0 0 1 -20.29983,20.2998303 20.300067,20.300067 0 0 1 -20.30028,-20.2998303 20.300067,20.300067 0 0 1 20.30028,-20.300273 z"
     style="fill:#f4f8ff;fill-opacity:1;stroke-width:0.227499;filter:url(#filter6688)"
     transform="matrix(1.6598375,0,0,1.6598375,1023.3502,66.655816)" />
  <path
     id="path1224"
     style="font-style:normal;font-variant:normal;font-weight:bold;font-stretch:normal;font-size:5.88475px;line-height:1.25;font-family:Comfortaa;-inkscape-font-specification:'Comfortaa, Bold';font-variant-ligatures:normal;font-variant-caps:normal;font-variant-numeric:normal;font-variant-east-asian:normal;fill:none;fill-opacity:1;stroke:#b8e092;stroke-width:0.749363;stroke-miterlimit:4;stroke-dasharray:none;stroke-opacity:1;filter:url(#filter1226)"
     d="m -637.33876,-28.345945 c -0.75948,-0.02237 -1.29646,0.803056 -0.98346,2.14345 0.35753,1.53188 2.04155,4.362358 2.04155,7.088073 0,2.725715 -1.68402,5.556194 -2.04155,7.088074 -0.35771,1.53188 0.39465,2.3915173 1.3207,2.081264 0.92598,-0.310236 1.01318,-2.060048 1.41589,-3.739678 0.40253,-1.679628 2.17229,-4.185014 4.07882,-4.185014 1.90653,0 3.67629,2.505382 4.07882,4.185014 0.4027,1.67963 0.48989,3.429442 1.4159,3.739678 0.92602,0.3102533 1.67839,-0.549389 1.3207,-2.081264 -0.35756,-1.53188 -2.04108,-4.362359 -2.04108,-7.088074 0,-2.725715 1.68352,-5.556193 2.04108,-7.088073 0.35769,-1.53188 -0.39468,-2.391042 -1.3207,-2.080787 -0.92601,0.310237 -1.0132,2.060049 -1.4159,3.739678 -0.40253,1.67963 -2.23161,4.191385 -4.07882,4.185014 -1.84721,-0.0064 -3.67629,-2.505384 -4.07882,-4.185014 -0.40271,-1.679629 -0.48991,-3.429438 -1.41589,-3.739678 -0.11576,-0.03878 -0.22874,-0.05947 -0.33724,-0.06266 z"
     sodipodi:nodetypes="ccscsczcccsccczcsc"
     transform="matrix(4.0034,0,0,4.0034,2574.4366,122.79752)" />
  <path
     id="path877"
     style="font-style:normal;font-variant:normal;font-weight:bold;font-stretch:normal;font-size:5.88475px;line-height:1.25;font-family:Comfortaa;-inkscape-font-specification:'Comfortaa, Bold';font-variant-ligatures:normal;font-variant-caps:normal;font-variant-numeric:normal;font-variant-east-asian:normal;fill:#4747a0;fill-opacity:1;stroke-width:1;stroke-miterlimit:4;stroke-dasharray:none"
     d="m 22.914598,9.3041626 c -3.040502,-0.089556 -5.190248,3.2149534 -3.937184,8.5810874 1.431336,6.132728 8.173142,17.464264 8.173142,28.376391 0,10.912127 -6.741806,22.243667 -8.173142,28.376395 -1.432056,6.132729 1.579942,9.574201 5.287291,8.332133 3.707068,-1.241999 4.056165,-8.247196 5.668374,-14.971427 1.611488,-6.724223 8.696546,-16.754285 16.329148,-16.754285 7.632602,0 14.717659,10.030046 16.329148,16.754285 1.612169,6.724231 1.961225,13.729428 5.668414,14.971427 3.707228,1.242068 6.719266,-2.199424 5.28729,-8.332133 -1.431455,-6.132728 -8.171259,-17.464268 -8.171259,-28.376395 0,-10.912127 6.739804,-22.243663 8.171259,-28.376391 C 74.979055,11.752521 71.967017,8.3129528 68.259789,9.5550276 64.5526,10.79703 64.203544,17.802227 62.591375,24.526454 60.979886,31.250684 53.657347,41.306244 46.262227,41.280739 38.867106,41.255117 31.544567,31.250684 29.933079,24.526454 28.32087,17.802227 27.971773,10.797042 24.264705,9.5550276 23.801271,9.3997758 23.348967,9.3169454 22.914598,9.3041746 Z"
     sodipodi:nodetypes="ccscsczcccsccczcsc" />
  <text
     xml:space="preserve"
     style="font-size:53.3333px;line-height:1.25;font-family:'EB Garamond';-inkscape-font-specification:'EB Garamond, Normal';fill:#4747a0;fill-opacity:1;stroke-width:1;stroke-miterlimit:4;stroke-dasharray:none"
     x="95.777458"
     y="60.955551"
     id="text2444"><tspan
       sodipodi:role="line"
       id="tspan2442"
       x="95.777458"
       y="60.955551"
       style="font-style:normal;font-variant:normal;font-weight:600;font-stretch:normal;font-size:53.3333px;font-family:'Fira Sans';-inkscape-font-specification:'Fira Sans, Semi-Bold';font-variant-ligatures:normal;font-variant-caps:normal;font-variant-numeric:normal;font-variant-east-asian:normal;fill:#4747a0;fill-opacity:1;stroke-width:1;stroke-miterlimit:4;stroke-dasharray:none">PyGeoOGC</tspan></text>
  <metadata
     id="metadata3768">
    <rdf:RDF>
      <cc:Work>
        <dc:format>image/svg+xml</dc:format>
        <dc:type
           rdf:resource="http://purl.org/dc/dcmitype/StillImage" />
        <cc:license
           rdf:resource="http://creativecommons.org/publicdomain/zero/1.0/" />
        <dc:publisher>
          <cc:Agent
             rdf:about="http://openclipart.org/">
            <dc:title>Openclipart</dc:title>
          </cc:Agent>
        </dc:publisher>
        <dc:date>2013-10-06T13:49:20</dc:date>
        <dc:description>umbrella pictogram</dc:description>
        <dc:source>https://openclipart.org/detail/184614/umbrella-by-harini-184614</dc:source>
        <dc:creator>
          <cc:Agent>
            <dc:title>harini</dc:title>
          </cc:Agent>
        </dc:creator>
        <dc:subject>
          <rdf:Bag>
            <rdf:li>Umbrella</rdf:li>
          </rdf:Bag>
        </dc:subject>
      </cc:Work>
      <cc:License
         rdf:about="http://creativecommons.org/publicdomain/zero/1.0/">
        <cc:permits
           rdf:resource="http://creativecommons.org/ns#Reproduction" />
        <cc:permits
           rdf:resource="http://creativecommons.org/ns#Distribution" />
        <cc:permits
           rdf:resource="http://creativecommons.org/ns#DerivativeWorks" />
      </cc:License>
    </rdf:RDF>
  </metadata>
</svg>
